<?xml version="1.0" encoding="utf-8"?>
<!-- Generator: Adobe Illustrator 27.0.0, SVG Export Plug-In . SVG Version: 6.00 Build 0)  -->
<svg version="1.1" xmlns="http://www.w3.org/2000/svg" xmlns:xlink="http://www.w3.org/1999/xlink" x="0px" y="0px"
	 viewBox="0 0 10 10" style="enable-background:new 0 0 10 10;" xml:space="preserve">
<style type="text/css">
	.st0{fill:#FFFFFF;stroke:#000000;stroke-linecap:round;stroke-linejoin:round;stroke-miterlimit:10;}
	.st1{fill:none;stroke:#000000;stroke-linecap:round;stroke-linejoin:round;stroke-miterlimit:10;}
	.st2{display:none;}
	.st3{display:inline;fill:none;stroke:#000000;stroke-linecap:round;stroke-linejoin:round;stroke-miterlimit:10;}
</style>
<g id="background">
	<path class="st0" d="M8,9.5H2C1.17,9.5,0.5,8.83,0.5,8V2c0-0.83,0.67-1.5,1.5-1.5h6c0.83,0,1.5,0.67,1.5,1.5v6
		C9.5,8.83,8.83,9.5,8,9.5z"/>
</g>
<g id="cross">
	<line class="st1" x1="3.23" y1="3.23" x2="6.77" y2="6.77"/>
	<line class="st1" x1="3.23" y1="6.77" x2="6.77" y2="3.23"/>
</g>
<g id="add" class="st2">
	<line class="st3" x1="5" y1="2.5" x2="5" y2="7.5"/>
	<line class="st3" x1="2.5" y1="5" x2="7.5" y2="5"/>
</g>
<g id="hamburger" class="st2">
	<line class="st3" x1="2.5" y1="5" x2="7.5" y2="5"/>
	<line class="st3" x1="2.5" y1="7" x2="7.5" y2="7"/>
	<line class="st3" x1="2.5" y1="3" x2="7.5" y2="3"/>
</g>
</svg>
